<?xml version="1.0" encoding="utf-8"?>
<!-- Generator: Adobe Illustrator 23.0.3, SVG Export Plug-In . SVG Version: 6.00 Build 0)  -->
<svg version="1.1" id="Capa_1" xmlns="http://www.w3.org/2000/svg" xmlns:xlink="http://www.w3.org/1999/xlink" x="0px" y="0px"
	 viewBox="0 0 755 346" style="enable-background:new 0 0 755 346;" xml:space="preserve">
<style type="text/css">
	.st0{opacity:0.6;fill:none;stroke:#BD9E56;stroke-miterlimit:10;}
	.st1{fill:none;stroke:#BD9E56;stroke-miterlimit:10;}
</style>
<path class="st0" d="M148.5,278.5"/>
<path class="st0" d="M165,297"/>
<path class="st0" d="M124.5,352.5"/>
<polyline class="st0" points="165.5,298.5 148.5,278.5 47.5,255.5 17.5,348.5 "/>
<line class="st0" x1="148.5" y1="278.5" x2="126.5" y2="346.5"/>
<line class="st0" x1="492.5" y1="346.5" x2="575.5" y2="61.5"/>
<polyline class="st0" points="150.5,346.5 225.5,100.5 337.5,117.5 279.5,313.5 305.5,319.5 390.5,37.5 575.5,61.5 688.5,287.5 
	672.5,346.5 "/>
<line class="st0" x1="357.5" y1="147" x2="337" y2="118"/>
<path class="st0" d="M265.5,352.5"/>
<path class="st0" d="M282,371"/>
<polyline class="st0" points="244.5,347.5 164.5,329.5 159.5,346.5 "/>
<path class="st1" d="M241.5,426.5"/>
<path class="st0" d="M265.5,352.5"/>
<line class="st0" x1="631.5" y1="346.5" x2="692.5" y2="135.5"/>
<path class="st1" d="M785.5,434.5"/>
<path class="st0" d="M805.5,361.5"/>
<polyline class="st0" points="436.5,346.5 507.5,111.5 692.5,135.5 754.6,259.7 "/>
<path class="st0" d="M422.5,393.5"/>
<polyline class="st0" points="289.5,348.5 342.5,174.5 454.5,191.5 408.5,346.5 "/>
<line class="st0" x1="474.5" y1="221" x2="454" y2="192"/>
</svg>
